<svg
  viewBox="0 0 24 24"
  fill="currentColor"
>
  <path d="M12 .5C5.648.5.5 5.648.5 12a11.5 11.5 0 0 0 7.865 10.93c.575.108.79-.25.79-.556 0-.274-.01-1.002-.015-1.966-3.2.696-3.877-1.543-3.877-1.543-.523-1.327-1.278-1.68-1.278-1.68-1.044-.714.08-.7.08-.7 1.154.081 1.761 1.186 1.761 1.186 1.027 1.76 2.695 1.252 3.352.957.104-.744.402-1.252.732-1.54-2.554-.29-5.238-1.277-5.238-5.684 0-1.255.448-2.28 1.183-3.083-.118-.29-.513-1.458.112-3.04 0 0 .965-.309 3.164 1.178a10.94 10.94 0 0 1 2.88-.388c.976.005 1.96.132 2.88.388 2.197-1.487 3.16-1.178 3.16-1.178.627 1.582.233 2.75.115 3.04.737.803 1.182 1.828 1.182 3.083 0 4.418-2.69 5.39-5.252 5.675.41.353.778 1.047.778 2.11 0 1.522-.014 2.75-.014 3.123 0 .31.21.67.797.555A11.503 11.503 0 0 0 23.5 12c0-6.352-5.148-11.5-11.5-11.5Z" />
</svg>
